<?xml version="1.0" encoding="utf-8"?>
<!-- Generator: Adobe Illustrator 24.0.2, SVG Export Plug-In . SVG Version: 6.00 Build 0)  -->
<svg version="1.1" id="Capa_1" xmlns="http://www.w3.org/2000/svg" xmlns:xlink="http://www.w3.org/1999/xlink" x="0px" y="0px"
	 viewBox="0 0 400 100" style="enable-background:new 0 0 400 100;" xml:space="preserve">
<style type="text/css">
	.st0{fill:#D0D0D0;}
	.st1{fill:#AFCA0A;}
</style>
<g>
	<g>
		<path class="st1" d="M222.57,35.1v-8.51h-31.38v8.51h11.33V60.2c0,6.55,5.33,11.88,11.88,11.88h3.04v-8.51h-3.04
			c-1.86,0-3.37-1.51-3.37-3.37V35.1H222.57z"/>
		<g>
			<path class="st1" d="M365.92,26.62c1.1,0,2.12,0.18,3.06,0.54c0.94,0.36,1.75,0.87,2.44,1.54c0.69,0.67,1.23,1.48,1.62,2.43
				c0.39,0.95,0.58,2.02,0.58,3.2c0,1.18-0.19,2.25-0.58,3.2c-0.39,0.95-0.93,1.76-1.62,2.43c-0.69,0.67-1.5,1.18-2.44,1.54
				c-0.94,0.36-1.96,0.54-3.06,0.54c-1.1,0-2.12-0.18-3.07-0.54c-0.94-0.36-1.76-0.87-2.45-1.54c-0.69-0.67-1.23-1.48-1.62-2.43
				c-0.39-0.95-0.59-2.02-0.59-3.2c0-1.18,0.2-2.25,0.59-3.2c0.39-0.95,0.93-1.76,1.62-2.43c0.69-0.67,1.5-1.18,2.45-1.54
				C363.8,26.8,364.82,26.62,365.92,26.62z M365.92,40.98c0.88,0,1.71-0.13,2.49-0.4c0.78-0.27,1.46-0.68,2.03-1.23
				c0.58-0.55,1.03-1.24,1.37-2.08c0.34-0.83,0.51-1.82,0.51-2.95c0-1.13-0.17-2.11-0.51-2.95c-0.34-0.83-0.79-1.53-1.37-2.08
				c-0.58-0.55-1.25-0.96-2.03-1.23c-0.78-0.27-1.61-0.4-2.49-0.4c-0.89,0-1.72,0.13-2.5,0.4c-0.78,0.27-1.46,0.68-2.03,1.23
				c-0.58,0.55-1.03,1.24-1.37,2.08c-0.33,0.83-0.5,1.82-0.5,2.95c0,1.13,0.17,2.11,0.5,2.95c0.33,0.83,0.79,1.53,1.37,2.08
				c0.58,0.55,1.25,0.96,2.03,1.23C364.2,40.85,365.03,40.98,365.92,40.98z M362.84,30.21h3.28c0.44,0,0.86,0.05,1.24,0.15
				c0.39,0.1,0.73,0.25,1.01,0.46c0.29,0.21,0.51,0.47,0.68,0.79c0.17,0.32,0.25,0.7,0.25,1.14c0,0.25-0.05,0.48-0.14,0.69
				s-0.23,0.41-0.39,0.58s-0.36,0.32-0.58,0.46c-0.22,0.13-0.46,0.24-0.71,0.33l1.97,3.36h-1.37l-1.82-3.13h-2.08v3.13h-1.34V30.21z
				 M364.18,31.29v2.67h2.42c0.15-0.02,0.3-0.06,0.46-0.11c0.16-0.05,0.31-0.12,0.45-0.21c0.14-0.09,0.25-0.21,0.34-0.35
				c0.09-0.14,0.13-0.32,0.13-0.53c0-0.53-0.18-0.9-0.53-1.12c-0.35-0.22-0.86-0.33-1.53-0.33H364.18z"/>
		</g>
		<path class="st1" d="M295.05,72.08h-8.51v-19.7c0-3.55-2.89-6.44-6.44-6.44c-3.55,0-6.44,2.89-6.44,6.44v19.7h-8.51v-19.7
			c0-8.25,6.71-14.95,14.95-14.95c8.25,0,14.96,6.71,14.96,14.95V72.08z"/>
		<path class="st1" d="M258.27,56.8H231.1c0.39,2.4,1.44,4.3,3.14,5.72c1.7,1.41,3.88,2.12,6.52,2.12c3.16,0,5.88-1.1,8.15-3.32
			l7.13,3.35c-1.78,2.52-3.9,4.38-6.38,5.59c-2.48,1.21-5.42,1.81-8.83,1.81c-5.29,0-9.59-1.67-12.92-5
			c-3.33-3.33-4.99-7.51-4.99-12.53c0-5.14,1.66-9.41,4.97-12.81c3.31-3.4,7.47-5.1,12.47-5.1c5.31,0,9.63,1.7,12.95,5.1
			c3.32,3.4,4.99,7.89,4.99,13.46L258.27,56.8z M249.81,50.14c-0.56-1.88-1.66-3.41-3.31-4.59c-1.65-1.18-3.55-1.77-5.73-1.77
			c-2.36,0-4.43,0.66-6.21,1.98c-1.12,0.83-2.15,2.28-3.1,4.37H249.81z"/>
		<path class="st1" d="M313.19,38.83v-12.2h-8.51v12.2h-6.58l0,0v6.66v0h6.58V60.2c0,6.55,5.33,11.88,11.88,11.88h3.21v-8.51h-3.21
			c-1.86,0-3.37-1.51-3.37-3.37V45.49h6.58v0v-6.66l0,0H313.19z"/>
		<path class="st1" d="M340.48,36.6c-9.78,0-17.74,7.96-17.74,17.74c0,9.78,7.96,17.74,17.74,17.74c9.78,0,17.74-7.96,17.74-17.74
			C358.22,44.56,350.26,36.6,340.48,36.6z M340.06,60.05c-0.53-0.46-1.19-0.73-1.89-0.79l-7.92-0.62l15.76-15.54l0.08,22.13
			L340.06,60.05z"/>
	</g>
	<path class="st0" d="M178.92,53.16c-1.49-1.77-3.59-3.04-6.29-3.8c0.58-0.4,1.18-0.9,1.81-1.51c0.62-0.6,1.2-1.31,1.72-2.12
		c0.52-0.81,0.96-1.74,1.3-2.79c0.35-1.05,0.52-2.22,0.52-3.51c0-1.83-0.38-3.49-1.12-4.98c-0.75-1.49-1.83-2.78-3.26-3.85
		c-1.43-1.07-3.16-1.9-5.2-2.48c-2.04-0.58-4.36-0.87-6.97-0.87H145.8v45.5h18c2.68,0,5.08-0.31,7.23-0.92
		c2.14-0.61,3.96-1.48,5.47-2.61c1.51-1.13,2.66-2.48,3.46-4.06c0.8-1.58,1.2-3.33,1.2-5.25C181.16,57.18,180.41,54.93,178.92,53.16
		z M155.81,34.95h6.57c3.09,0,5.6,2.51,5.6,5.6s-2.51,5.6-5.6,5.6h-6.57V34.95z M165.55,65.05h-9.75V53h9.75
		c3.33,0,6.03,2.7,6.03,6.03S168.88,65.05,165.55,65.05z"/>
	<path class="st0" d="M58.16,60.14c0,2.01-0.39,3.83-1.15,5.45c-0.77,1.63-1.86,3.02-3.28,4.18c-1.42,1.16-3.13,2.06-5.13,2.69
		c-2.01,0.64-4.25,0.95-6.72,0.95c-1.32,0-2.67-0.08-4.07-0.23c-1.39-0.16-2.77-0.37-4.13-0.65c-1.36-0.28-2.67-0.62-3.91-1.02
		c-1.25-0.4-2.38-0.86-3.38-1.37l2.41-7.23c1.09,0.36,2.16,0.69,3.19,0.99s2.07,0.56,3.1,0.79c1.02,0.22,2.06,0.4,3.09,0.52
		c1.04,0.12,2.1,0.18,3.2,0.18c2.1,0,3.71-0.44,4.85-1.32c1.14-0.88,1.71-2.12,1.71-3.73c0-0.8-0.19-1.53-0.57-2.17
		c-0.38-0.65-0.93-1.23-1.64-1.76c-0.71-0.52-1.57-1.01-2.58-1.46c-1-0.45-2.12-0.87-3.35-1.27c-2.05-0.69-3.9-1.46-5.55-2.31
		c-1.65-0.85-3.06-1.82-4.22-2.93c-1.16-1.1-2.06-2.35-2.69-3.75c-0.64-1.39-0.95-2.97-0.95-4.73c0-2.01,0.38-3.83,1.15-5.47
		s1.86-3.04,3.28-4.22c1.42-1.17,3.12-2.08,5.12-2.73c2-0.65,4.23-0.97,6.71-0.97c1.38,0,2.76,0.11,4.13,0.32
		c1.37,0.21,2.68,0.48,3.93,0.8c1.25,0.32,2.4,0.69,3.45,1.09c1.05,0.4,1.94,0.8,2.68,1.2l-1.87,7.26
		c-1.12-0.38-2.16-0.73-3.14-1.05c-0.98-0.32-1.94-0.6-2.88-0.84c-0.94-0.23-1.87-0.42-2.81-0.55s-1.91-0.2-2.91-0.2
		c-2.21,0-3.85,0.47-4.94,1.41c-1.08,0.94-1.62,2.14-1.62,3.61c0,0.71,0.13,1.38,0.4,1.99c0.27,0.61,0.69,1.19,1.27,1.72
		c0.58,0.54,1.33,1.03,2.24,1.49c0.91,0.46,2.03,0.9,3.35,1.32c2.54,0.8,4.72,1.66,6.52,2.58c1.81,0.91,3.28,1.93,4.42,3.04
		c1.14,1.12,1.97,2.36,2.51,3.73C57.89,56.87,58.16,58.42,58.16,60.14z"/>
	<path class="st0" d="M94.59,60.14c0,2.01-0.39,3.83-1.15,5.45c-0.77,1.63-1.86,3.02-3.28,4.18c-1.42,1.16-3.13,2.06-5.13,2.69
		c-2.01,0.64-4.25,0.95-6.72,0.95c-1.32,0-2.67-0.08-4.07-0.23c-1.39-0.16-2.77-0.37-4.13-0.65c-1.36-0.28-2.67-0.62-3.91-1.02
		c-1.25-0.4-2.38-0.86-3.38-1.37l2.41-7.23c1.09,0.36,2.16,0.69,3.19,0.99s2.07,0.56,3.1,0.79c1.02,0.22,2.06,0.4,3.09,0.52
		c1.04,0.12,2.1,0.18,3.2,0.18c2.1,0,3.71-0.44,4.85-1.32c1.14-0.88,1.71-2.12,1.71-3.73c0-0.8-0.19-1.53-0.57-2.17
		c-0.38-0.65-0.93-1.23-1.64-1.76c-0.71-0.52-1.57-1.01-2.58-1.46c-1-0.45-2.12-0.87-3.35-1.27c-2.05-0.69-3.9-1.46-5.55-2.31
		c-1.65-0.85-3.06-1.82-4.22-2.93c-1.16-1.1-2.06-2.35-2.69-3.75c-0.64-1.39-0.95-2.97-0.95-4.73c0-2.01,0.38-3.83,1.15-5.47
		c0.77-1.64,1.86-3.04,3.28-4.22c1.42-1.17,3.12-2.08,5.12-2.73c2-0.65,4.23-0.97,6.71-0.97c1.38,0,2.76,0.11,4.13,0.32
		c1.37,0.21,2.68,0.48,3.93,0.8c1.25,0.32,2.4,0.69,3.45,1.09c1.05,0.4,1.94,0.8,2.68,1.2l-1.87,7.26
		c-1.12-0.38-2.16-0.73-3.14-1.05c-0.98-0.32-1.94-0.6-2.88-0.84c-0.94-0.23-1.87-0.42-2.81-0.55s-1.91-0.2-2.91-0.2
		c-2.21,0-3.85,0.47-4.94,1.41c-1.08,0.94-1.62,2.14-1.62,3.61c0,0.71,0.13,1.38,0.4,1.99c0.27,0.61,0.69,1.19,1.27,1.72
		c0.58,0.54,1.33,1.03,2.24,1.49c0.91,0.46,2.03,0.9,3.35,1.32c2.54,0.8,4.72,1.66,6.52,2.58c1.81,0.91,3.28,1.93,4.42,3.04
		c1.14,1.12,1.97,2.36,2.51,3.73C94.32,56.87,94.59,58.42,94.59,60.14z"/>
	<path class="st0" d="M135.17,53.16c-1.49-1.77-3.59-3.04-6.29-3.8c0.58-0.4,1.18-0.9,1.81-1.51c0.62-0.6,1.2-1.31,1.72-2.12
		c0.52-0.81,0.96-1.74,1.3-2.79c0.35-1.05,0.52-2.22,0.52-3.51c0-1.83-0.38-3.49-1.12-4.98c-0.75-1.49-1.83-2.78-3.26-3.85
		c-1.43-1.07-3.16-1.9-5.2-2.48c-2.04-0.58-4.36-0.87-6.97-0.87h-15.62v45.5h18c2.68,0,5.08-0.31,7.23-0.92
		c2.14-0.61,3.96-1.48,5.47-2.61c1.51-1.13,2.66-2.48,3.46-4.06c0.8-1.58,1.2-3.33,1.2-5.25C137.41,57.18,136.66,54.93,135.17,53.16
		z M112.05,34.95h6.57c3.09,0,5.6,2.51,5.6,5.6s-2.51,5.6-5.6,5.6h-6.57V34.95z M121.8,65.05h-9.75V53h9.75
		c3.33,0,6.03,2.7,6.03,6.03S125.12,65.05,121.8,65.05z"/>
</g>
</svg>
